<svg enable-background="new 0 0 50 40.537" height="auto" viewBox="0 0 50 40.537" width="50" xmlns="http://www.w3.org/2000/svg"><path d="m49.971 27.14c-.109-1.729-8.468-21.875-8.468-21.875-1.999-3.168-4.146-5.337-7.346-5.133-2.771.175-5.158 1.847-6.16 4.482 0 0-2.958 6.389-2.973 6.389l-2.877-6.389c-1-2.635-3.5-4.426-6.271-4.601-3.199-.204-5.363 2.084-7.362 5.252 0 0-8.376 20.146-8.486 21.875-.444 6.978 4.345 12.962 10.66 13.361 6.066.386 11.371-4.511 12.179-11.079.569.201 3.735.228 4.304.027.809 6.567 6.1 11.452 12.166 11.065 6.315-.398 11.079-6.396 10.634-13.374z" fill="#b0b0b0"/></svg>